<?xml version="1.0" encoding="UTF-8" standalone="no"?>
<svg
   xmlns:dc="http://purl.org/dc/elements/1.1/"
   xmlns:cc="http://creativecommons.org/ns#"
   xmlns:rdf="http://www.w3.org/1999/02/22-rdf-syntax-ns#"
   xmlns:svg="http://www.w3.org/2000/svg"
   xmlns="http://www.w3.org/2000/svg"
   xmlns:sodipodi="http://sodipodi.sourceforge.net/DTD/sodipodi-0.dtd"
   xmlns:inkscape="http://www.inkscape.org/namespaces/inkscape"
   width="116px"
   height="42px"
   viewBox="0 0 116 42"
   version="1.1"
   id="svg32"
   sodipodi:docname="awiros_logo_reg.svg"
   inkscape:version="0.92.2 5c3e80d, 2017-08-06">
  <title
     id="title46">awiros_logo_registered</title>
  <metadata
     id="metadata36">
    <rdf:RDF>
      <cc:Work
         rdf:about="">
        <dc:format>image/svg+xml</dc:format>
        <dc:type
           rdf:resource="http://purl.org/dc/dcmitype/StillImage" />
        <dc:title>awiros_logo_registered</dc:title>
        <dc:date>oct-2017</dc:date>
        <dc:creator>
          <cc:Agent>
            <dc:title>vikram-gupta</dc:title>
          </cc:Agent>
        </dc:creator>
        <dc:publisher>
          <cc:Agent>
            <dc:title>Awidit Systems Pvt. Ltd. (India)</dc:title>
          </cc:Agent>
        </dc:publisher>
        <dc:subject>
          <rdf:Bag>
            <rdf:li>awiros</rdf:li>
            <rdf:li>video intelligence</rdf:li>
            <rdf:li>operating system</rdf:li>
            <rdf:li>artificial</rdf:li>
            <rdf:li>intelligence</rdf:li>
          </rdf:Bag>
        </dc:subject>
      </cc:Work>
    </rdf:RDF>
  </metadata>
  <sodipodi:namedview
     pagecolor="#ffffff"
     bordercolor="#666666"
     borderopacity="1"
     objecttolerance="10"
     gridtolerance="10"
     guidetolerance="10"
     inkscape:pageopacity="0"
     inkscape:pageshadow="2"
     inkscape:window-width="1733"
     inkscape:window-height="1040"
     id="namedview34"
     showgrid="false"
     inkscape:zoom="10.92454"
     inkscape:cx="74.378714"
     inkscape:cy="21.343922"
     inkscape:window-x="0"
     inkscape:window-y="0"
     inkscape:window-maximized="0"
     inkscape:current-layer="awiros-logo-SVG" />
  <!-- Generator: Sketch 49.1 (51147) - http://www.bohemiancoding.com/sketch -->
  <desc
     id="desc12">Created with Sketch.</desc>
  <defs
     id="defs14" />
  <g
     id="Retail"
     stroke="none"
     stroke-width="1"
     fill="none"
     fill-rule="evenodd">
    <g
       id="surveillance"
       transform="translate(-40.000000, -29.000000)">
      <g
         id="Header">
        <g
           id="awiros-logo-SVG"
           transform="translate(40.000000, 29.000000)">
          <path
             d="M40.7157385,13.166586 C39.1467312,9.67554479 39.0682809,9.55786925 38.2968523,9.29636804 C37.9699758,9.19176755 37.7869249,9.19176755 37.2900726,9.34866828 C35.9956416,9.76707022 34.8973366,10.0416465 34.3874092,10.0939467 C33.7990315,10.146247 33.472155,10.0024213 32.9360775,9.46634383 C32.2823245,8.79951574 31.5501211,8.14576271 31.2101695,7.8842615 C31.0140436,7.74043584 30.8048426,7.49200969 30.7263923,7.33510896 C30.5433414,6.9559322 30.6217918,5.84455206 30.9094431,4.48474576 C31.1840194,3.21646489 31.1447942,2.49733656 30.7917676,2.06585956 C30.5564165,1.79128329 29.2750605,1.24213075 26.4769976,0.24842615 C26.2285714,0.156900726 26.0062954,0.117675545 25.7970944,0.117675545 C25.1694915,0.130750605 24.6857143,0.575302663 24.1234867,1.58208232 C23.8096852,2.13123487 23.5220339,2.64116223 23.4566586,2.71961259 C23.4043584,2.79806295 23.2213075,3.07263923 23.0513317,3.3472155 C22.6198547,4.05326877 22.253753,4.17094431 20.0309927,4.24939467 C18.2527845,4.31476998 18.1612591,4.31476998 17.7951574,4.06634383 C17.4159806,3.81791768 17.3375303,3.72639225 16.9191283,3.09878935 C16.7883777,2.9157385 16.4615012,2.4188862 16.1738499,2.00048426 C15.0363196,0.300726392 14.7225182,0.209200969 12.8658596,1.01985472 C10.8261501,1.90895884 9.79322034,2.44503632 9.54479419,2.71961259 C9.33559322,2.95496368 8.99564165,3.02033898 8.99564165,3.79176755 C9.04794189,4.4716707 9.51864407,4.91622276 9.62324455,5.54382567 C9.66246973,5.80532688 9.72784504,6.06682809 9.78014528,6.11912833 C9.81937046,6.18450363 9.91089588,6.48523002 9.97627119,6.78595642 C10.159322,7.60968523 10.0024213,8.09346247 9.34866828,8.72106538 C9.06101695,9.00871671 8.48571429,9.62324455 8.06731235,10.0808717 C7.12590799,11.1268765 7.02130751,11.1530266 5.06004843,10.8130751 C2.8503632,10.4208232 2.68038741,10.4077482 2.19661017,10.6823245 C1.71283293,10.9569007 1.5559322,11.1922518 1.17675545,12.2251816 C1.03292978,12.6435835 0.876029056,13.0750605 0.823728814,13.2058111 C0.771428571,13.3365617 0.666828087,13.6242131 0.575302663,13.8464891 C0.48377724,14.0687651 0.326876513,14.5133172 0.209200969,14.8140436 C-0.0653753027,15.5331719 -0.0653753027,15.990799 0.222276029,16.4615012 C0.4968523,16.9060533 0.4968523,16.9060533 2.15738499,17.8474576 C2.88958838,18.2658596 3.55641646,18.6711864 3.63486683,18.7496368 C4.05326877,19.1288136 4.11864407,19.442615 4.18401937,21.3254237 C4.23631961,22.9075061 4.22324455,23.2213075 4.07941889,23.4958838 C3.89636804,23.8489104 3.3472155,24.2803874 1.86973366,25.2479419 C1.32058111,25.6009685 0.771428571,26.0585956 0.640677966,26.2416465 C0.24842615,26.8300242 0.326876513,27.222276 1.25520581,29.2227603 C2.26198547,31.4193705 2.47118644,31.7723971 2.81113801,31.9162228 C3.50411622,32.2038741 3.67409201,32.177724 6.35447942,31.4716707 C7.50508475,31.1578692 7.97578692,31.2624697 8.69491525,32.0077482 C8.98256659,32.2953995 9.36174334,32.6615012 9.53171913,32.8053269 C9.70169492,32.9622276 10.0154964,33.2368039 10.2377724,33.4198547 C10.9438257,34.0343826 11.0745763,34.2958838 11.009201,34.9757869 C10.9830508,35.3026634 10.8523002,36.074092 10.7215496,36.6755448 C10.368523,38.3622276 10.368523,38.5060533 10.577724,38.9506053 C10.6823245,39.1728814 10.8784504,39.4343826 10.9961259,39.525908 C11.1268765,39.6174334 12.1336562,40.0358354 13.2319613,40.4411622 C15.7031477,41.3564165 16.2653753,41.4087167 16.840678,40.7549637 C17.0891041,40.4673123 17.8997579,39.1205811 17.8997579,38.9898305 C17.8997579,38.9244552 17.9389831,38.872155 17.9782082,38.872155 C18.0174334,38.872155 18.1743341,38.6368039 18.3181598,38.3360775 C18.4619855,38.0484262 18.7365617,37.6692494 18.9457627,37.4992736 C19.2987893,37.1985472 19.3772397,37.1854722 21.2077482,37.0939467 C21.3254237,37.0939467 21.4038741,37.0808717 21.5084746,37.0808717 L21.5084746,31.8639225 C19.8087167,31.9946731 18.0435835,31.759322 16.3569007,31.0794189 L16.3046005,31.0532688 C10.5254237,28.6736077 7.7535109,22.0837772 10.0939467,16.3307506 C12.4474576,10.577724 19.0372881,7.83196126 24.8164649,10.2116223 C29.2750605,12.0421308 31.9423729,16.3961259 31.8377724,20.9200969 L37.2639225,20.9200969 C37.2639225,20.6455206 37.2639225,20.3186441 37.2639225,19.9394673 C37.2639225,17.6121065 37.146247,17.8213075 39.2121065,16.422276 C40.5719128,15.5070218 40.7549637,15.3501211 40.9641646,14.9186441 C41.1995157,14.4871671 41.1472155,14.1341404 40.7157385,13.166586 Z"
             id="Shape"
             fill="#000000"
             fill-rule="nonzero" />
          <path
             d="M41.7094431,29.17046 L41.7094431,27.2745763 C41.7094431,26.7515738 41.5002421,26.3070218 41.0949153,25.927845 C40.6895884,25.5486683 40.2188862,25.3656174 39.6697337,25.3656174 L37.6300242,25.3656174 C36.4271186,25.3656174 35.7602906,26.0062954 35.6164649,27.2745763 L33.5767554,27.2745763 C33.8905569,24.7249395 35.2372881,23.4566586 37.6300242,23.4566586 L41.7094431,23.4566586 C42.8208232,23.4566586 43.7753027,23.8358354 44.5598063,24.5941889 C45.357385,25.3394673 45.7627119,26.2416465 45.7627119,27.2876513 L45.7627119,36.8062954 L41.7094431,36.8062954 L41.7094431,34.8973366 C41.5525424,36.1656174 40.8726392,36.8062954 39.6697337,36.8062954 L37.6300242,36.8062954 C36.5186441,36.8062954 35.5641646,36.4401937 34.766586,35.6949153 C33.9690073,34.9496368 33.5767554,34.0474576 33.5767554,33.0014528 L33.5767554,32.9883777 C33.5767554,31.9423729 33.9820823,31.0532688 34.779661,30.3079903 C35.5772397,29.5627119 36.5317191,29.1835351 37.6300242,29.1835351 L41.7094431,29.1835351 M41.7094431,31.0924939 L39.6697337,31.0924939 C39.1075061,31.0924939 38.6368039,31.2755448 38.231477,31.6547215 C37.8261501,32.0208232 37.6300242,32.4653753 37.6300242,32.9883777 L37.6300242,33.0014528 C37.6300242,33.5113801 37.8261501,33.9559322 38.2184019,34.335109 C38.6237288,34.7142857 39.094431,34.8973366 39.6697337,34.8973366 C40.2319613,34.8973366 40.7157385,34.7142857 41.1079903,34.335109 C41.5133172,33.9559322 41.7094431,33.5113801 41.7094431,33.0014528 L41.7094431,31.0924939"
             id="XMLID_12_"
             fill="#000000"
             fill-rule="nonzero" />
          <path
             d="M46.9786925,23.4566586 L51.0319613,23.4566586 L51.0319613,34.8842615 L53.0716707,34.8842615 C53.6338983,34.8842615 54.1176755,34.7012107 54.5099274,34.3220339 C54.9152542,33.9428571 55.1113801,33.4983051 55.1113801,32.9883777 L55.1113801,23.4566586 L59.1646489,23.4566586 L59.1646489,34.8842615 L61.1912833,34.8842615 C61.7404358,34.8842615 62.211138,34.7012107 62.6033898,34.3220339 C63.0087167,33.9428571 63.2048426,33.4983051 63.2048426,32.9883777 L63.2048426,23.4566586 L67.2711864,23.4566586 L67.2711864,30.2818402 C67.2711864,32.0600484 66.5912833,33.5898305 65.231477,34.8711864 C63.8716707,36.1525424 62.2503632,36.7932203 60.3414044,36.7932203 L55.0983051,36.7932203 L55.0983051,36.1917676 C54.3138015,36.5970944 53.359322,36.7932203 52.2217918,36.7932203 L46.9786925,36.7932203 L46.9786925,23.4566586"
             id="XMLID_11_"
             fill="#000000"
             fill-rule="nonzero" />
          <path
             d="M68.4479419,21.5738499 L68.4479419,19.664891 L72.5012107,19.664891 L72.5012107,21.5738499 L68.4479419,21.5738499 M68.4479419,36.8062954 L68.4479419,23.4697337 L72.5012107,23.4697337 L72.5012107,36.8062954 L68.4479419,36.8062954"
             id="XMLID_8_"
             fill="#000000"
             fill-rule="nonzero" />
          <path
             d="M77.77046,36.8062954 L73.7171913,36.8062954 L73.7171913,23.4697337 L77.77046,23.4697337 L77.77046,27.2876513 C77.9273608,26.0193705 78.3457627,25.064891 79.0256659,24.4242131 C79.705569,23.7835351 80.6469734,23.4697337 81.8368039,23.4697337 L83.8503632,23.4697337 L83.8503632,27.2876513 L79.7970944,27.2876513 C79.2348668,27.2876513 78.7641646,27.4707022 78.3588378,27.8498789 C77.9535109,28.2159806 77.757385,28.6605327 77.757385,29.1835351 L77.757385,36.8062954"
             id="XMLID_7_"
             fill="#000000"
             fill-rule="nonzero" />
          <path
             d="M88.8188862,23.4566586 L92.88523,23.4566586 C93.9966102,23.4566586 94.9510896,23.8358354 95.7355932,24.5941889 C96.5331719,25.3394673 96.9384988,26.2416465 96.9384988,27.2876513 L96.9384988,33.0014528 C96.9384988,34.0343826 96.5331719,34.9234867 95.7355932,35.6818402 C94.9380145,36.4271186 93.9966102,36.8062954 92.88523,36.8062954 L88.8188862,36.8062954 C87.7075061,36.8062954 86.7530266,36.4401937 85.9554479,35.6949153 C85.1578692,34.9496368 84.7656174,34.0474576 84.7656174,33.0014528 L84.7656174,27.2876513 C84.7656174,26.2285714 85.1709443,25.3394673 85.968523,24.5941889 C86.7661017,23.8358354 87.7205811,23.4566586 88.8188862,23.4566586 M88.8188862,27.2876513 L88.8188862,33.0014528 C88.8188862,33.5113801 89.0150121,33.9559322 89.4072639,34.335109 C89.8125908,34.7142857 90.283293,34.8973366 90.8585956,34.8973366 C91.4208232,34.8973366 91.9046005,34.7142857 92.2968523,34.335109 C92.7021792,33.9559322 92.8983051,33.5113801 92.8983051,33.0014528 L92.8983051,27.2876513 C92.8983051,26.7646489 92.6891041,26.3200969 92.2837772,25.9409201 C91.8784504,25.5617433 91.4077482,25.3786925 90.8585956,25.3786925 C90.296368,25.3786925 89.8256659,25.5617433 89.420339,25.9409201 C89.0280872,26.3070218 88.8188862,26.7646489 88.8188862,27.2876513"
             id="XMLID_4_"
             fill="#000000"
             fill-rule="nonzero" />
          <path
             d="M107.960775,27.2876513 L105.947215,27.2876513 C105.764165,26.0193705 105.123487,25.3786925 104.025182,25.3786925 C103.306053,25.3786925 102.769976,25.5094431 102.403874,25.7840194 C102.037772,26.0455206 101.867797,26.4377724 101.867797,26.9607748 C101.867797,27.5099274 102.848426,28.2813559 104.82276,29.2619855 C106.430993,30.0726392 107.346247,30.7394673 107.594673,31.2755448 C107.843099,31.8116223 107.960775,32.3738499 107.960775,32.9753027 C107.960775,34.0343826 107.555448,34.9365617 106.757869,35.6949153 C105.960291,36.4401937 105.018886,36.8062954 103.907506,36.8062954 L101.867797,36.8062954 C99.1612591,36.8062954 97.8145278,35.5380145 97.8145278,33.0014528 L99.8542373,33.0014528 C100.011138,34.2697337 100.651816,34.8973366 101.750121,34.8973366 C102.469249,34.8973366 103.005327,34.766586 103.371429,34.4920097 C103.73753,34.2305085 103.907506,33.8251816 103.907506,33.3021792 C103.907506,32.7661017 102.926877,31.9946731 100.965617,31.0009685 C99.357385,30.2033898 98.4290557,29.5234867 98.1806295,28.9874092 C97.9452785,28.4513317 97.8145278,27.8891041 97.8145278,27.2876513 C97.8145278,26.2285714 98.2198547,25.3133172 99.0174334,24.5680387 C99.8150121,23.8227603 100.769492,23.4435835 101.867797,23.4435835 L103.907506,23.4435835 C106.444068,23.4566586 107.790799,24.7380145 107.960775,27.2876513"
             id="XMLID_3_"
             fill="#000000"
             fill-rule="nonzero" />
          <path
             d="M28.2813559,27.9544794 C25.8624697,30.464891 23.1951574,31.8377724 22.3191283,31.0009685 C21.4561743,30.1641646 22.7113801,27.4576271 25.1302663,24.9341404 C27.5491525,22.4237288 30.2164649,21.0508475 31.0924939,21.8876513 C31.8377724,22.6067797 31.0271186,24.7249395 29.1443099,26.9869249"
             id="XMLID_1_"
             fill="#000000"
             fill-rule="nonzero" />
          <path
             style="stroke:#000000;stroke-width:0.5"
             d="m 115,20 a 4,4 0 0 1 -4,4 4,4 0 0 1 -4,-4 4,4 0 0 1 4,-4 4,4 0 0 1 4,4 z"
             id="Oval" />
          <g
             aria-label="R"
             transform="scale(1.041741,0.95993149)"
             style="font-weight:normal;font-size:8.66213036px;font-family:Roboto-Regular, Roboto;letter-spacing:0.32782832;fill:#000000;stroke-width:1.23744714"
             id="R">
            <path
               d="m 104.7489,23.54808 v -5.42652 h 1.51841 q 0.94742,0 1.31539,0.156494 0.7867,0.325676 0.7867,1.150439 0,0.566761 -0.28338,0.947421 -0.28339,0.37643 -0.94743,0.702106 l 1.92022,2.47006 h -1.01086 l -1.71297,-2.258582 h -0.75286 v 2.258582 z m 0.83322,-2.888786 h 0.43987 q 0.6725,0 1.06585,-0.296069 0.39335,-0.296069 0.39335,-0.799386 0,-0.469481 -0.29607,-0.642893 -0.29607,-0.173411 -1.09123,-0.173411 h -0.51177 z"
               style="font-style:normal;font-variant:normal;font-weight:normal;font-stretch:semi-condensed;font-size:8.66213036px;font-family:'Lucida Console';-inkscape-font-specification:'Lucida Console, Semi-Condensed';font-variant-ligatures:normal;font-variant-caps:normal;font-variant-numeric:normal;font-feature-settings:normal;text-align:start;writing-mode:lr-tb;text-anchor:start;stroke-width:1.23744714"
               id="path43" />
          </g>
        </g>
      </g>
    </g>
  </g>
</svg>
